<svg xmlns="http://www.w3.org/2000/svg" id="uuid-3113013b-fa0b-4d4f-96b8-abf391146ca0" viewBox="0 0 143.22 55.83"><g id="uuid-a61d8653-1d38-4237-b591-1a3a1afd025b"><path d="m57.56,55.53c.07-.23-.06-.48-.28-.55-.01,0-.02,0-.04-.01-.01,0-.03,0-.04-.01-.14-.06-.28-.13-.42-.2-.24-.14-.48-.29-.7-.45-.57-.43-1.1-.91-1.63-1.4-.19-.17-.37-.34-.55-.51-.21-.2-.42-.4-.63-.59-.2-.18-.41-.36-.61-.54-.12-.11-.25-.22-.38-.33-.35-.29-.7-.58-1.05-.87-.18-.15-.37-.31-.55-.46-.12-.1-.23-.2-.35-.3-.05-.04-.1-.08-.14-.12-.31-.29-.63-.57-.94-.86-.57-.58-1.14-1.17-1.7-1.76-.26-.28-.55-.54-.82-.81-.11-.11-.22-.22-.33-.32-.17-.15-.35-.3-.52-.44-.11-.1-.23-.19-.34-.29-.04-.03-.07-.07-.11-.1-.2-.15-.4-.31-.61-.46-.15-.11-.29-.22-.44-.33-.23-.16-.46-.33-.69-.49-.36-.25-.72-.49-1.08-.74-.15-.1-.31-.21-.46-.32-.18-.12-.36-.24-.53-.37h0s-.04-.03-.06-.04c.01,0,.03.02.04.03-.21-.16-.43-.32-.65-.47,0,0,0,0,0,0-.11-.08-.21-.16-.32-.23.01,0,.03.02.04.03-.02-.02-.05-.04-.07-.05.01,0,.03.02.04.03,0,0,0,0-.01,0-1.33-1.02-2.62-2.09-3.95-3.12-.68-.53-1.38-1.04-2.07-1.56-.34-.26-.68-.53-1.01-.81-.31-.26-.61-.54-.9-.82,0,0,0,0,0,0,0,0-.01-.01-.02-.02,0,0,0,0,0,0,0,0,0,0,0,0,0,0,0,0,0,0,0,0,0,0,0,0,0,0,0,0,0,0-.14-.14-.28-.27-.42-.41.01.01.03.03.04.04-.03-.02-.05-.05-.08-.07l.04.04c-.14-.13-.27-.26-.41-.39.01.01.03.03.04.04-.02-.02-.03-.03-.05-.05-.27-.26-.55-.52-.8-.79-.28-.29-.55-.59-.82-.89-.57-.62-1.14-1.24-1.72-1.85-.59-.61-1.18-1.22-1.79-1.82-.29-.29-.58-.57-.87-.86-.33-.33-.65-.66-.99-.98,0,0,0,0,0,0-.11-.11-.22-.23-.33-.34-.05-.05-.11-.11-.16-.17-.1-.15-.2-.29-.29-.44-.01-.02-.03-.04-.04-.06.45.21.89.43,1.35.62.59.25,1.19.51,1.79.74,1.2.47,2.4.95,3.61,1.38,1.29.46,2.58.92,3.9,1.32.13.04.25.08.38.12.16.11.33.21.49.32.26.17.52.33.79.49.11.07.22.13.34.19.13.07.26.15.39.22.25.13.49.27.75.39.56.28,1.13.56,1.7.84.29.14.58.29.87.43.24.12.47.25.71.38.02.01.04.02.05.03-.08,0-.17,0-.25.01,0,0,0,0,0,0,.23.28.48.55.77.78.13.1.26.2.39.28.16.09.32.17.49.25.42.18.84.35,1.27.5.05.03.09.07.14.1.49.34,1,.66,1.52.95.52.29,1.04.55,1.57.82.56.28,1.13.56,1.68.85.41.24.83.47,1.23.74.42.28.83.57,1.24.87.22.16.44.33.66.48.18.13.36.26.55.38.31.19.63.37.96.54.73.37,1.46.72,2.2,1.08.48.23.97.47,1.45.7.47.23.92.46,1.38.7.21.12.41.24.62.36.2.11.4.24.6.37.22.14.44.29.66.42.27.16.54.33.82.48.13.08.26.16.4.22.16.08.32.16.48.24.24.12.49.24.73.34.29.12.58.24.87.36.31.12.63.24.94.36.56.21,1.13.42,1.69.63.54.2,1.08.41,1.63.59.59.2,1.17.39,1.77.55,1.19.34,2.39.63,3.61.87.31.06.61.12.92.17.31.06.62.1.93.14.31.04.62.07.93.1.3.03.6.04.91.05.6.02,1.2.01,1.8,0,.58-.01,1.16-.04,1.75-.06.29,0,.58,0,.88,0,.16,0,.32,0,.48.02.17.01.34.03.51.04.56.04,1.13.11,1.69.15.62.05,1.25.09,1.87.12.59.03,1.17.06,1.75.11.2.03.4.06.59.09.23.09.48.18.72.24.23.06.47.12.71.12.11,0,.22,0,.33-.02.06-.02.1-.02.14-.06.06-.05.06-.14,0-.19-.07-.08-.21-.07-.3-.08h0s0,0,0,0c0,0,0,0,0,0,0,0,0,0,0,0-.42-.05-.83-.14-1.24-.22-.39-.17-.77-.35-1.15-.54-.37-.19-.74-.37-1.11-.55-.42-.2-.83-.4-1.25-.6-.37-.18-.73-.37-1.1-.57-.26-.15-.53-.31-.79-.47-.12-.07-.24-.15-.35-.23-.13-.09-.26-.18-.39-.28-.25-.2-.51-.4-.75-.61-.46-.38-.9-.78-1.36-1.16-.27-.23-.56-.44-.85-.64-.43-.29-.89-.51-1.36-.74-.12-.06-.23-.1-.35-.15-.14-.06-.28-.12-.43-.18-.26-.1-.52-.2-.79-.3-.59-.22-1.17-.44-1.76-.66-.15-.06-.3-.12-.44-.18-.54-.22-1.07-.46-1.61-.67-.28-.11-.56-.22-.85-.31-.31-.1-.62-.2-.93-.29-.59-.17-1.19-.3-1.79-.44-.55-.12-1.09-.25-1.64-.39-.51-.13-1.01-.28-1.51-.42-.54-.15-1.08-.27-1.62-.39-1.04-.22-2.09-.4-3.14-.61-1.17-.24-2.32-.55-3.48-.81-.59-.13-1.18-.26-1.77-.4-.65-.15-1.31-.3-1.96-.47-.54-.15-1.08-.31-1.61-.47-.5-.16-1-.33-1.5-.48-1.06-.33-2.12-.67-3.19-.95-.06-.02-.12-.03-.19-.05,0,0,.01,0,.02,0-.04-.01-.08-.02-.12-.03,0,0,0,0,0,0-.87-.22-1.75-.42-2.63-.63-.34-.09-.67-.18-1-.28-.08-.02-.16-.05-.24-.08-.13-.09-.27-.19-.4-.28-.25-.17-.49-.33-.74-.49-.28-.18-.56-.34-.85-.51-.12-.07-.25-.13-.38-.2-.12-.06-.23-.12-.35-.18-.27-.13-.54-.26-.81-.38-.59-.27-1.18-.54-1.77-.82-.06-.03-.11-.06-.16-.08.15.04.29.08.44.12.58.16,1.17.3,1.75.46.64.19,1.27.37,1.91.57,1.19.37,2.43.59,3.66.82,1.23.22,2.46.43,3.7.56,1.31.14,2.63.26,3.95.39.02,0,.05,0,.07,0,.04.14.19.24.33.2.15-.04.3-.07.45-.1.7.09,1.39.18,2.09.27,1.12.14,2.24.27,3.37.39.99.11,1.98.18,2.98.23,1.02.05,2.05.08,3.07.07-.02,0-.05,0-.07,0,.23,0,.46,0,.69,0,.21.04.42.08.62.12,1.13.22,2.26.44,3.4.62.57.09,1.15.16,1.72.22.25.03.51.04.77.05.28.02.56.03.84.05,1.12.05,2.24.08,3.36.08.6,0,1.19,0,1.79-.03.53-.02,1.05-.05,1.58-.08.24.11.49.22.73.34.41.2.81.41,1.21.63.17.1.34.2.51.3.15.09.29.19.44.28.28.18.56.38.83.58.22.17.44.35.65.53.22.18.42.37.63.55.2.18.4.36.6.54.19.17.38.33.57.5.15.13.31.27.47.39.19.15.38.32.58.46.22.16.44.32.66.47.2.14.41.27.61.41.77.51,1.55,1,2.33,1.5.39.25.78.49,1.17.73.18.11.36.22.54.33.23.13.46.28.69.4.24.13.48.26.72.39.19.1.38.19.57.28.19.09.37.18.56.26.16.07.32.14.49.2.07.03.15.07.22.09.26.09.53.19.79.28.22.08.45.13.67.2.41.12.82.23,1.22.33.97.26,1.94.52,2.9.8.46.13.92.26,1.38.39.19.05.39.1.59.14.21.05.41.1.62.14.29.05.59.1.88.16.21.04.41.06.62.09.44.06.88.12,1.32.17.02,0,.03,0,.05,0,.02,0,.04,0,.06,0,0,0,0,0,0,0,0,0,.01,0,.02,0,0,0,0,0,0,0,0,0,0,0,0,0,.17.02.35.04.52.06-.01,0-.03,0-.04,0,.05,0,.09.01.14.02-.01,0-.03,0-.04,0,.12.02.25.03.37.04.15.02.31.04.46.04.11,0,.24.02.36,0,.08-.02.18-.04.24-.1.06-.06.11-.11.12-.2.01-.07,0-.17-.04-.23-.05-.09-.12-.15-.2-.21-.07-.05-.15-.1-.22-.15-.08-.05-.16-.11-.24-.16-.18-.12-.37-.24-.55-.36-.42-.28-.84-.55-1.27-.82-.4-.25-.8-.48-1.21-.71-.8-.45-1.62-.86-2.43-1.3-.22-.13-.44-.25-.66-.37-.18-.1-.36-.22-.55-.32-.39-.24-.79-.48-1.17-.73-.42-.28-.83-.55-1.24-.83-.35-.24-.7-.48-1.06-.71-.25-.16-.49-.31-.73-.47-.18-.11-.36-.21-.54-.32-.19-.11-.37-.22-.56-.32-.27-.14-.53-.28-.8-.42-.43-.22-.86-.43-1.29-.65-.39-.19-.77-.4-1.15-.6-.34-.2-.69-.39-1.03-.59-.38-.22-.75-.45-1.14-.66-.38-.21-.77-.43-1.15-.64,0,0,0,0,0,0-.22-.12-.46-.23-.68-.35-.28-.14-.57-.29-.85-.43-.23-.12-.48-.21-.71-.32-.29-.13-.57-.26-.86-.39-.05-.02-.1-.04-.14-.06.12-.01.24-.02.36-.03.56-.06,1.13-.12,1.69-.18.57-.06,1.15-.09,1.72-.13,1.12-.07,2.24-.12,3.36-.22,1.1-.1,2.2-.29,3.28-.53.58-.13,1.16-.26,1.74-.41.53-.13,1.05-.29,1.58-.42.54-.14,1.08-.26,1.62-.37.29-.06.58-.12.87-.17.14-.03.29-.06.43-.09.13-.03.28-.04.4-.09.18-.08.31-.22.35-.41.04-.19-.04-.39-.19-.52-.18-.15-.39-.14-.6-.13-.35,0-.7-.04-1.05-.08-1.01-.12-2.02-.34-3.01-.58-1.01-.26-2.02-.56-3.03-.84-1.08-.3-2.16-.59-3.23-.92-.15-.05-.3-.1-.44-.15.17-.07.34-.14.51-.21.05-.02.1-.05.16-.07.07-.02.13-.05.2-.07.86-.32,1.73-.63,2.59-.94.22.12.51.06.65-.16.02-.03.04-.06.06-.1.32-.07.64-.16.96-.21.13-.02.27-.03.4-.03.12,0,.24,0,.35.01.05,0,.1,0,.14.01.02,0,.04.02.05.03.12.04.24.05.36.07.11.02.23.03.34.05.43.06.86.12,1.28.22h0c.07.02.14.03.21.05,0,0-.01,0-.02,0,.02,0,.04,0,.06.01,0,0,0,0-.01,0,0,0,0,0,0,0,0,0,0,0,0,0,0,0,0,0,0,0,0,0,0,0,0,0,0,0,0,0,0,0,.2.05.39.11.58.16.17.05.34.11.52.17,0,0,0,0,0,0,.13.05.25.1.38.15.13.05.25.12.38.18.23.11.45.23.67.35.17.1.34.2.5.3.13.08.26.16.39.24.32.2.63.41.94.62.59.4,1.2.78,1.8,1.17.32.21.63.42.94.63.28.19.56.4.84.6-.02-.01-.03-.02-.05-.03.47.36.94.72,1.4,1.09.46.37.92.75,1.37,1.13.6.5,1.21.99,1.82,1.47.55.43,1.11.86,1.67,1.29.57.44,1.13.88,1.69,1.31.61.46,1.21.92,1.82,1.37.57.43,1.15.87,1.7,1.33.27.23.53.46.79.7.13.12.26.24.39.36.15.13.29.28.46.4.2.13.5.09.65-.1.08-.11.13-.24.12-.38,0-.05-.02-.1-.03-.14-.02-.09-.04-.17-.06-.26-.05-.19-.09-.39-.14-.58-.1-.41-.24-.82-.41-1.21-.29-.67-.63-1.32-.96-1.98-.34-.67-.68-1.34-1.01-2.01-.32-.64-.63-1.29-1-1.9-.1-.17-.2-.33-.31-.49-.05-.08-.11-.17-.17-.25-.05-.07-.1-.13-.15-.2-.11-.15-.22-.29-.34-.43-.11-.13-.22-.26-.34-.39-.14-.15-.28-.3-.43-.44-.15-.15-.31-.3-.47-.44-.11-.11-.23-.21-.35-.31-.13-.11-.25-.22-.38-.33-.18-.14-.36-.28-.53-.43-.14-.11-.28-.21-.43-.31-.13-.09-.25-.18-.38-.27-.11-.07-.23-.15-.34-.22-.05-.04-.11-.07-.16-.1,0,0,.02,0,.02.01-.18-.1-.36-.2-.54-.3-.15-.09-.31-.16-.47-.24-.14-.07-.28-.13-.43-.19-.16-.07-.33-.14-.49-.2-.2-.07-.39-.15-.59-.22-.17-.06-.34-.11-.51-.17-.13-.04-.27-.09-.4-.13-.18-.05-.37-.11-.55-.16.02,0,.03,0,.05.01-.26-.07-.51-.13-.77-.2,0,0,0,0,0,0-.26-.07-.52-.12-.78-.18-.27-.06-.53-.11-.8-.17-.51-.1-1.02-.2-1.54-.3-.73-.14-1.46-.26-2.19-.38-.16-.03-.33-.04-.49-.07-.16-.02-.32-.04-.48-.06-.23-.02-.45-.04-.68-.07-.18-.02-.35-.02-.53-.03-.72-.04-1.43-.05-2.15-.06-.09,0-.19,0-.28,0,.36-.14.73-.27,1.09-.4,1.19-.45,2.37-.9,3.56-1.35.37-.14.74-.29,1.11-.44.61-.19,1.22-.38,1.82-.59.06-.02.11-.04.17-.06.45-.09.89-.16,1.34-.23.34-.05.69-.09,1.03-.14.99-.12,1.97-.28,2.96-.37.48-.04.96-.07,1.44-.1.48-.04.96-.06,1.44-.08.5-.02.99-.03,1.49-.08.48-.05.96-.1,1.43-.19.98-.18,1.95-.4,2.92-.63,1-.23,2-.49,2.99-.77.47-.13.94-.29,1.4-.45.48-.17.94-.37,1.4-.57,0,0,0,0,0,0,.6-.27,1.19-.57,1.79-.86.86-.42,1.72-.83,2.58-1.26.48-.24.95-.48,1.43-.73.2-.1.41-.21.61-.31.13-.06.25-.12.38-.18.12-.06.24-.1.35-.18.11-.08.16-.21.13-.35-.02-.11-.11-.22-.23-.25-.09-.02-.17-.01-.25,0,0,0-.01,0-.02,0,0,0,0,0,0,0,0,0,0,0-.01,0,0,0,0,0,.01,0,0,0,0,0,0,0-.19.03-.38.04-.57.04-.32,0-.64-.01-.96-.03-1.02-.05-2.04-.12-3.06-.23-.5-.05-1-.1-1.5-.14-.52-.04-1.04-.03-1.56-.02-.76.01-1.51.05-2.26.08-.81.03-1.62.04-2.42.08-.47.02-.95.07-1.42.12-.21.02-.42.04-.62.06.07-.03.14-.05.22-.08.52-.18,1.05-.35,1.57-.54,1-.37,2-.73,2.98-1.16,0,0,.02,0,.02-.01.02-.01.05-.02.07-.03,0,0,0,0,0,0,.06-.02.11-.05.17-.07,0,0,0,0,0,0,.03-.01.06-.03.09-.04,0,0,.01,0,.02,0,0,0,0,0,0,0,.01,0,.02,0,.03-.01,0,0,0,0,0,0,.01,0,.02,0,.03-.01.02-.01.05-.02.07-.03,0,0,0,0,0,0,.38-.17.75-.35,1.12-.54.99-.49,1.96-1,2.93-1.53.45-.25.9-.5,1.35-.73.5-.25,1-.49,1.49-.75.24-.12.48-.24.72-.37.25-.14.5-.26.74-.41.26-.15.52-.31.78-.46.26-.16.52-.34.77-.51.23-.15.45-.33.67-.5.22-.16.43-.35.63-.53.41-.35.79-.73,1.16-1.11.78-.8,1.52-1.64,2.25-2.48.39-.44.77-.89,1.14-1.34.18-.22.36-.43.54-.65.16-.19.33-.38.5-.57.14-.14.28-.28.42-.42.11-.11.24-.21.35-.31.14-.11.27-.21.32-.38.08-.27-.12-.51-.39-.5-.28,0-.57.04-.85.06-.27.02-.53.03-.8.05-.56.03-1.12.07-1.68.1-.25.02-.51.04-.76.07-.25.03-.5.05-.75.09-.19.03-.37.06-.56.1-.09.02-.19.03-.28.05-.3.07-.6.14-.9.2-.28.06-.55.14-.83.22-.55.15-1.1.31-1.63.53-.7.28-1.37.64-1.96,1.11-.23.18-.46.36-.68.55-.45.38-.9.77-1.34,1.16-.17.16-.34.31-.5.48-.2.2-.42.4-.61.61-.22.25-.45.5-.67.75-.18.2-.34.4-.5.61-.32.39-.64.8-.96,1.19-.37.45-.74.9-1.12,1.33-.38.42-.76.84-1.14,1.26-.17.18-.34.36-.52.53-.19.18-.37.36-.56.53-.43.4-.85.79-1.26,1.2-.37.36-.74.73-1.14,1.07-.43.37-.86.73-1.3,1.09,0,0,0,0,.01-.01-.15.12-.3.24-.44.36-.11.04-.23.08-.34.13-.27.11-.51.27-.72.48-.13.13-.23.29-.31.45-.04,0-.09,0-.13.02-.51.08-1.02.18-1.52.29-.96.21-1.91.47-2.81.85-.26.11-.52.22-.78.35-.24.12-.48.24-.72.37-.46.25-.89.54-1.32.82-.84.56-1.63,1.2-2.37,1.89-.72.68-1.45,1.35-2.22,1.98-.09.07-.18.15-.28.21-.1.07-.2.13-.3.2-.04.02-.07.04-.11.06-.18.02-.31.18-.32.36-.05.02-.1.03-.15.05-.56.19-1.11.38-1.66.59-.57.21-1.13.44-1.69.65-.57.21-1.15.4-1.71.63-.28.11-.55.23-.83.34-.15.06-.3.12-.45.18.22-.17.45-.35.66-.53.58-.48,1.16-.96,1.71-1.49.26-.25.52-.51.77-.77.25-.27.51-.55.76-.83.5-.58,1-1.17,1.45-1.79.06-.07.11-.15.17-.23,0,.01-.02.02-.03.04.05-.07.1-.14.16-.21,0,0,0,.01-.01.02,0,0,.01-.02.02-.03,0,0,0,0,.01-.01,0,0,0,0,0,0,0,0,.01-.01.02-.02.24-.33.48-.66.7-1,.23-.35.46-.7.68-1.05.1-.16.18-.32.27-.48.2-.36.38-.74.51-1.13.06-.19.12-.38.17-.56.03-.11.05-.22.08-.33.02-.08.04-.16.06-.23.07-.37.14-.74.18-1.11,0-.06.01-.12.02-.17,0,.02,0,.05,0,.07,0-.04,0-.07.01-.11.05-.44.09-.89.11-1.34.02-.34.03-.7.03-1.04,0-.4,0-.79-.03-1.19-.05-.75-.17-1.49-.32-2.22-.15-.73-.35-1.44-.55-2.16-.1-.35-.19-.7-.29-1.04-.1-.36-.21-.71-.31-1.06-.03-.1-.06-.21-.09-.31-.05-.18-.08-.38-.24-.5-.17-.13-.37-.15-.56-.06-.2.09-.32.32-.42.5-.07.12-.13.23-.19.35-.1.18-.2.36-.3.54,0,0,0,0,0,0,0,0,0,.02-.01.03,0,0,0,0,0-.01-.36.65-.73,1.29-1.09,1.94,0,0,0,0,0,0-.27.48-.55.97-.8,1.47-.1.2-.2.4-.3.61-.09.18-.16.36-.24.54-.15.34-.28.69-.4,1.04-.12.34-.24.69-.35,1.04-.12.39-.23.78-.33,1.18-.1.37-.19.75-.27,1.13-.08.35-.16.71-.23,1.07-.15.71-.32,1.42-.49,2.13-.11.42-.23.84-.35,1.25-.21.72-.42,1.44-.6,2.17-.18.72-.34,1.45-.51,2.17-.07.25-.14.51-.22.76-.08.25-.15.51-.23.76-.08.26-.15.52-.23.78-.08.26-.17.51-.27.76-.1.25-.22.48-.34.72-.07.13-.15.25-.23.37-.12.16-.25.3-.37.45-.04.05-.08.1-.12.15,0,0-.01,0-.02,0-.05.01-.07.05-.07.1-.44.16-.88.31-1.32.47-.94.33-1.88.66-2.83.98-.34-.12-.67-.24-1.01-.35-.56-.18-1.13-.35-1.7-.48-.55-.13-1.1-.24-1.66-.33-.57-.1-1.14-.19-1.71-.29-.05,0-.09-.02-.13-.02.17-.17.34-.34.52-.5.43-.38.86-.74,1.28-1.13.42-.38.83-.76,1.24-1.13.21-.19.43-.38.64-.56.21-.18.43-.36.63-.56.2-.2.4-.4.58-.63.17-.22.33-.45.49-.67,0,0,0,0,0,0,0,0,0-.01.01-.02.35-.46.71-.91,1.07-1.36.35-.45.65-.93.92-1.42.28-.51.55-1.02.79-1.55.23-.51.43-1.04.62-1.57.18-.51.36-1.02.5-1.54.07-.27.13-.54.18-.81.05-.26.1-.52.12-.79.02-.25,0-.5-.04-.74-.02-.11-.04-.22-.07-.32-.05-.2-.15-.37-.3-.5-.15-.12-.37-.2-.56-.12-.19.08-.32.23-.38.43-.02.06-.02.13-.02.19-.02.04-.04.08-.03.12,0,0,0,0,.01,0,0,.01,0,.02,0,.03,0,.06.02.11.03.17,0,.02,0,.04.01.06.02.07.03.14.04.22,0,.03,0,.06,0,.09-.05.03-.1.05-.15.08-.25.15-.5.34-.68.58-.17.22-.34.43-.51.65-.21.27-.41.54-.61.82-.17.23-.33.47-.5.7-.08.11-.16.23-.25.34-.13.17-.26.34-.39.51-.16.19-.32.38-.48.57-.3.34-.6.67-.89,1.01-.29.33-.56.67-.83,1.02-.13.17-.26.34-.4.5-.14.17-.29.34-.44.5-.1.1-.19.2-.3.29-.11.09-.22.19-.32.28-.3.24-.6.47-.92.69-.33.23-.66.46-.99.69-.38.27-.76.53-1.14.8-.4.29-.79.59-1.18.9-.36.28-.71.56-1.08.82-.36.26-.73.49-1.1.73-.27.16-.54.31-.82.46-.28.16-.57.31-.85.46-.32.17-.63.33-.95.5-.24,0-.49,0-.73,0-1.16.01-2.31.04-3.47.13-1.14.09-2.29.23-3.41.48-1.08.24-2.15.54-3.21.85-.08.02-.15.05-.23.07.03,0,.06-.02.08-.02-.04,0-.07.02-.1.03,0,0,0,0,0,0-.02,0-.04.01-.06.02,0,0-.01,0-.02,0,0,0,0,0,0,0-.06.02-.12.03-.17.05.01,0,.02,0,.03,0-1,.29-2,.6-2.97.99-1.07.42-2.13.87-3.19,1.31-.49.2-.98.42-1.47.62-.27.11-.53.22-.81.32-.26.09-.51.17-.77.25-.77.2-1.55.37-2.33.54-.37.08-.73.15-1.1.23-.19.04-.38.08-.57.12-.11.02-.22.05-.33.07-.32-.03-.63-.07-.95-.11-.75-.08-1.51-.16-2.26-.25-1.96-.28-3.91-.64-5.84-1.08-.56-.15-1.12-.33-1.68-.5-1.17-.37-2.36-.67-3.54-.99-.62-.17-1.25-.34-1.87-.53-.61-.18-1.21-.37-1.82-.56-.63-.2-1.27-.39-1.9-.61-.52-.19-1.05-.37-1.58-.56-.04-.02-.08-.04-.12-.05-.76-.32-1.52-.62-2.29-.92.05-.02.1-.05.15-.09.16,0,.31,0,.47,0,.41,0,.82-.03,1.23-.04.38.07.76.13,1.13.2.54.1,1.08.21,1.62.33.58.14,1.16.28,1.75.4,1.18.24,2.38.37,3.58.51.63.08,1.26.15,1.88.24.54.07,1.09.16,1.63.23.62.08,1.24.15,1.87.2.61.05,1.22.07,1.84.07,1.2.01,2.39,0,3.59-.05.63-.02,1.26-.04,1.89-.08.62-.03,1.24-.08,1.85-.13.57-.04,1.15-.1,1.72-.15.58-.05,1.17-.1,1.76-.15.57-.05,1.14-.13,1.71-.21.62-.09,1.23-.18,1.85-.3.56-.11,1.13-.23,1.69-.35.59-.12,1.18-.24,1.76-.38,1.2-.27,2.36-.64,3.54-.99.55-.16,1.09-.32,1.63-.51.55-.2,1.1-.41,1.66-.61,1.11-.4,2.23-.76,3.35-1.12.54-.18,1.09-.34,1.63-.52.47-.17.95-.34,1.39-.58.15-.08.23-.24.22-.4-.01-.17-.13-.31-.29-.36-.12-.04-.24-.02-.36,0-.08.01-.16.03-.24.04-.22.03-.45.07-.67.08-.31.02-.62.04-.93.07-.23.02-.46.01-.69.02-.27,0-.53.01-.8.02-.06,0-.12,0-.19,0-.18,0-.36-.01-.54-.02-.29-.01-.57-.02-.86-.03-.07,0-.15-.02-.22-.02-.18-.02-.36-.04-.54-.06-.26-.03-.51-.06-.77-.08-.5-.08-1-.16-1.5-.23-.53-.08-1.06-.18-1.6-.25-.6-.08-1.2-.16-1.79-.23-.66-.08-1.32-.15-1.99-.23-.64-.07-1.28-.13-1.92-.18-.23-.02-.46-.03-.69-.04-.31-.02-.62-.04-.93-.05-.61-.01-1.21-.03-1.82-.03-.33,0-.65,0-.98,0-.35.01-.7.02-1.04.04-.24,0-.48.02-.72.04-.29.02-.59.03-.89.06-.36.04-.73.08-1.09.12-.27.03-.54.08-.81.12-.6.09-1.2.2-1.8.32-.6.12-1.21.25-1.81.37-.54.12-1.08.23-1.62.37-.64.16-1.27.33-1.9.5-.58.16-1.16.33-1.73.49-1.15.33-2.31.61-3.47.89-1.13.27-2.26.53-3.39.78-1.14.25-2.27.49-3.42.69-.34.05-.67.09-1.01.12-.32.03-.65.04-.97.06-.17,0-.33,0-.5.01-.34-.05-.68-.1-1.02-.16-.57-.1-1.12-.21-1.68-.35-.63-.16-1.25-.34-1.87-.52-.27-.11-.54-.22-.82-.32-.09-.04-.18-.07-.27-.1-.17-.06-.34-.13-.51-.19-.24-.09-.48-.18-.72-.27-.29-.1-.59-.21-.88-.31-.39-.14-.78-.28-1.18-.37-.18-.14-.35-.28-.53-.41-.36-.27-.73-.55-1.09-.82-.14-.19-.28-.39-.43-.58-.2-.26-.41-.51-.65-.74-.25-.24-.51-.47-.78-.68-.28-.22-.58-.42-.87-.61-.27-.18-.55-.36-.83-.54-.25-.17-.5-.34-.74-.52-1.06-1.06-2.12-2.12-3.15-3.21-.29-.31-.57-.62-.85-.94.27.08.55.17.83.23.12.07.24.13.36.2,0,0,0,0-.01,0,.03.02.06.03.09.05-.02,0-.03-.02-.05-.03.24.13.49.24.73.36.19.09.37.18.56.26.27.12.53.24.8.34.29.11.57.23.86.33.3.1.6.21.89.32.25.09.51.17.76.25.55.18,1.11.34,1.66.51.24.07.49.13.73.2.28.07.55.15.83.22,0,0,0,0,0,0,0,0,0,0,0,0-.01,0-.02,0-.03,0,.44.11.88.22,1.32.34.06.01.11.03.17.04.03,0,.05.01.08.02-.02,0-.05-.01-.07-.02,1,.26,2.01.52,3.01.78.23.06.47.11.71.17.28.07.56.13.85.2.22.05.44.08.66.12.29.05.58.11.87.16.22.04.45.07.68.1.27.04.54.08.81.12.25.04.51.06.76.1.23.03.45.06.68.08.49.06.99.12,1.48.17,0,0,.02,0,.03,0,1.12.11,2.25.23,3.38.27.3.01.61.03.91.03.33,0,.67,0,1,0,.53,0,1.05-.02,1.58-.02,0,0,0,0,0,0,0,0,.01,0,.02,0,0,0,.01,0,.02,0h0s.07,0,.11,0c.12,0,.25,0,.37,0-.02,0-.05,0-.07,0,.23,0,.45,0,.68,0-.02,0-.05,0-.07,0,.13,0,.25,0,.38,0,0,0,0,0,0,0,.02,0,.05,0,.07,0,0,0,0,0,0,0,0,0,0,0,.01,0,.02,0,.03,0,.05,0,.51,0,1.02,0,1.52-.02,0,0,0,0-.01,0,.8,0,1.6-.02,2.39-.05.37-.01.73-.04,1.1-.07.18-.01.36-.02.53-.04.16-.02.31-.04.47-.06.31-.04.61-.09.92-.13.31-.04.62-.11.93-.16.51-.09,1.03-.19,1.54-.28,1.11-.2,2.22-.41,3.33-.61.09-.01.19-.02.28-.07.05-.03.1-.07.14-.11.14-.12.13-.35-.01-.47-.12-.11-.25-.19-.4-.25-.16-.07-.32-.13-.48-.18-.12-.04-.25-.08-.37-.12-.25-.08-.49-.16-.74-.24-.6-.18-1.21-.36-1.81-.53-1.06-.31-2.13-.62-3.18-.96-.51-.16-1.01-.32-1.52-.46-.54-.15-1.08-.32-1.63-.46-1.17-.31-2.33-.6-3.51-.86-.57-.13-1.15-.24-1.72-.36-.57-.11-1.15-.21-1.72-.3-.54-.09-1.08-.16-1.62-.24-.31-.04-.61-.07-.92-.11-.23-.03-.46-.05-.7-.06-.27-.02-.54-.06-.81-.06-.35,0-.71,0-1.06,0-.26,0-.51.02-.77.03-.25.01-.51.02-.76.04-1.15.08-2.29.2-3.44.3-1.11.09-2.22.19-3.33.27-1.15.08-2.3.14-3.46.19-.25,0-.51,0-.76.01-.79,0-1.57-.02-2.36-.04-.39-.01-.77-.02-1.16-.04-.4-.02-.79-.04-1.18-.08-.3-.04-.6-.08-.89-.13-.15-.03-.3-.05-.45-.09-.17-.04-.33-.08-.5-.12-.23-.07-.46-.13-.69-.2-.27-.09-.55-.18-.82-.26-.34-.1-.69-.19-1.03-.26-.11-.06-.21-.11-.32-.17,0,0,0,0-.01,0-.1-.19-.2-.37-.31-.54-.28-.46-.62-.89-1.01-1.26-.36-.35-.75-.67-1.12-1.01-.1-.1-.2-.21-.3-.31-.03-.04-.06-.08-.08-.11-.52-.71-1.01-1.44-1.48-2.18-.28-.47-.57-.93-.86-1.39-.29-.44-.59-.88-.89-1.31-.43-.63-.83-1.31-1.37-1.87-.42-.44-1.03-.67-1.64-.54C.75,1.31.27,1.74.09,2.3.03,2.51,0,2.73,0,2.94c0,.26.01.52.07.78.02.09.05.18.08.27.14.38.35.73.63,1.03-.01.18,0,.36.03.54.04.17.1.34.18.49.03.06.07.12.11.18.12.24.26.47.41.69.08.13.17.25.26.38.23.32.46.63.71.93.44.53.9,1.05,1.38,1.54.13.13.25.26.38.38.09.09.19.19.28.27.08.08.17.16.26.24-.05-.05-.11-.1-.16-.16.47.44.94.89,1.44,1.3.26.21.51.43.8.61.3.19.61.36.93.49.44.19.9.33,1.36.45,0,0,.01.01.02.02.46.49.92.98,1.39,1.46.87.9,1.81,1.72,2.73,2.58.97.9,1.93,1.81,2.91,2.71.49.45,1.01.85,1.53,1.27.22.17.45.33.67.5.26.19.53.39.79.58,0,0,0,0,0,0,.43.31.85.63,1.28.94.4.29.78.61,1.17.91.26.2.52.4.78.59.08.06.17.11.25.16.09.2.17.39.26.59.09.2.19.4.29.6.1.19.21.38.32.56.22.38.49.73.78,1.06.14.16.27.31.42.45.11.11.22.21.33.32.06.11.12.22.18.34.19.37.38.75.58,1.11.14.26.29.53.43.79.09.17.17.34.27.5,0-.02-.02-.03-.03-.04.26.44.53.88.8,1.33.08.13.16.25.24.38.17.26.34.53.51.79.2.31.4.62.61.93.23.34.45.69.68,1.03.31.45.63.91.94,1.36.22.32.48.63.72.93.23.3.46.6.71.88.38.43.75.86,1.13,1.28.23.27.49.51.73.77.22.22.43.45.65.67.09.09.18.19.27.28.37.36.74.72,1.11,1.08.6.59,1.22,1.17,1.84,1.75.01.01.03.03.04.04.82.79,1.63,1.57,2.44,2.36.29.28.59.54.9.81.2.17.39.35.59.52.09.08.18.15.27.22.24.19.48.38.73.58.14.11.27.22.41.33.4.3.79.6,1.19.91.7.53,1.39,1.06,2.08,1.6.77.59,1.56,1.16,2.43,1.6.54.28,1.11.51,1.69.69.52.16,1.05.3,1.59.4.88.15,1.76.28,2.65.43.44.08.89.16,1.33.24.18.03.36.07.54.1.23.04.47.08.7.14.01,0,.02,0,.04,0,.23.07.47-.05.55-.28Zm-2.79-17.29c.58.12,1.16.23,1.73.35l.12.02c.59.12,1.19.24,1.79.37l.47.1c.38.08.78.17,1.18.25.84.16,1.7.31,2.52.46.4.07.79.14,1.18.21.3.05.6.11.9.17.14.03.28.05.4.08.13.03.25.05.37.08.21.05.43.11.64.16.38.09.75.19,1.13.27.53.12,1.07.24,1.59.35.62.13,1.26.27,1.89.42l.15.04c.11.03.23.06.34.1l.28.09.21.07c.28.09.57.2.84.3l.13.05h-.01s.07.02.1.04c.19.07.37.15.55.22.52.21,1.06.43,1.6.63.4.15.8.3,1.21.44.34.12.69.25,1.03.38l.23.09.11.05.1.04c.07.03.14.05.21.09l.08.04c.32.15.64.3.95.47.16.09.32.19.48.3.16.11.32.22.5.34.28.22.56.44.83.67.05.04.11.09.17.13.24.2.48.39.72.58.25.2.53.4.81.59.27.18.58.38.93.57l.25.13.25.13c.08.04.17.08.25.12l.11.05c.28.13.51.24.75.35.25.11.51.22.76.33.32.14.64.28.96.42l.49.22.21.09s0,0,0,0c0,0,0,0,0,0-.02,0-.04,0-.07,0-.08,0-.15-.01-.22-.02l-.51-.04c-.33-.02-.65-.05-.98-.08-.44-.04-.91-.08-1.53-.15l-.18-.02-.36-.05c-.28-.04-.56-.07-.84-.11-.24-.03-.53-.07-.82-.09-.29-.02-.63-.05-.98-.06-.28-.01-.57-.02-.85-.02h-.11c-.21,0-.41,0-.62,0-.36,0-.73,0-1.1-.02h-.26s-.26-.02-.26-.02h-.13s-.09-.01-.14-.01c-.05,0-.09,0-.14,0-.17-.01-.33-.03-.5-.04l-.38-.03-.2-.03-.2-.03c-.05,0-.1-.01-.15-.02-.09-.01-.19-.02-.28-.04-.15-.03-.29-.05-.44-.08-.04,0-.09-.01-.13-.02-.09-.01-.17-.03-.26-.05l-.23-.05c-.46-.1-.91-.21-1.37-.32l-.31-.08c-.29-.08-.59-.15-.88-.23-.45-.12-.89-.25-1.34-.38-.59-.17-1.17-.37-1.74-.56-.36-.12-.72-.25-1.15-.41-.14-.05-.29-.11-.45-.17l-.39-.15c-.43-.17-.87-.34-1.3-.5-.56-.21-1.15-.43-1.74-.66-.06-.03-.13-.05-.19-.08-.13-.05-.26-.1-.38-.16-.07-.03-.13-.06-.2-.09-.14-.06-.29-.13-.43-.19-.03-.02-.07-.03-.11-.05-.04-.02-.07-.03-.11-.05-.13-.06-.27-.13-.4-.2l-.55-.3-.15-.09c-.14-.08-.29-.17-.43-.25-.13-.08-.25-.16-.38-.24-.04-.03-.08-.05-.12-.07-.06-.04-.13-.08-.19-.12-.13-.08-.28-.16-.42-.25-.14-.08-.28-.17-.42-.25-.49-.28-1.01-.55-1.53-.8-.56-.27-1.12-.55-1.67-.82-.19-.09-.37-.18-.56-.27-.69-.34-1.41-.68-2.1-1.06-.19-.11-.38-.22-.58-.35-.2-.13-.4-.27-.61-.42l-.19-.14-.12-.08c-.47-.35-.97-.69-1.49-1.04-.02-.01-.03-.02-.05-.03.18.07.36.14.55.21.5.2,1.01.41,1.51.61,0,0-.02,0-.02,0,.24.1.47.21.7.32.27.12.53.24.8.36.51.23,1.01.47,1.51.7.42.2.86.37,1.29.55.17.07.34.15.52.22.22.08.43.16.64.24.41.15.81.31,1.22.46.5.18,1.01.35,1.51.53.18.07.36.12.55.18.31.1.62.2.94.31.41.13.82.26,1.22.39.4.13.79.26,1.19.39.43.14.87.28,1.3.43.99.36,1.98.71,2.98,1.05.38.14.77.26,1.16.38.4.13.79.26,1.19.37,1.02.29,2.04.59,3.06.89.98.29,1.96.59,2.93.9,0,0,0,0,0,0-.23-.1-.46-.19-.69-.29-.88-.37-1.76-.74-2.64-1.1-.89-.37-1.77-.73-2.67-1.08.01,0,.03.01.04.02-.79-.34-1.58-.66-2.37-1-.4-.17-.79-.35-1.2-.51-.49-.2-.98-.4-1.47-.59,0,0,0,0,0,0,0,0,0,0,0,0-.02,0-.04-.01-.06-.02,0,0,.02,0,.03.01-.02,0-.03-.01-.05-.02,0,0,0,0,0,0-.25-.1-.51-.18-.76-.27-.31-.11-.63-.22-.94-.32-.21-.07-.43-.13-.65-.2-.33-.1-.66-.2-.99-.31-.83-.26-1.67-.52-2.5-.79-.41-.14-.82-.27-1.22-.41-.49-.18-.98-.36-1.47-.53-.42-.17-.84-.34-1.25-.51-.79-.32-1.56-.69-2.34-1.04-.26-.12-.53-.24-.8-.36.56.15,1.12.27,1.66.38Zm30.13-2.43c.16.05.32.1.48.16l.74.29.74.3c.28.12.55.24.82.36.13.06.27.12.4.18.31.14.62.29.9.43.1.05.2.1.3.15.23.11.47.23.71.36l.25.13c.29.16.58.32.87.47.09.05.17.1.26.15l.09.05c.44.26.88.51,1.33.76l.15.09c.13.07.26.15.39.22l.81.42c.32.17.64.33.97.49l.32.16c.26.13.51.26.77.4.12.06.24.12.36.19.08.05.17.1.25.14.07.04.14.08.22.12.15.09.31.17.46.27l.33.21.33.21c.27.17.54.35.81.53l.23.15c.81.54,1.6,1.06,2.41,1.52.07.04.15.08.22.13.15.09.3.18.45.26l.74.39c.31.16.63.32.94.47l.23.11.32.15c.3.14.6.29.9.44.23.12.44.23.65.34.21.11.41.22.61.33l.44.25c.24.14.49.28.73.42.11.07.23.13.34.2l.14.08h0s0,0,0,0c-.01,0-.02,0-.03,0h-.03s-.06,0-.06,0l-.33-.04c-.45-.06-.92-.11-1.38-.18-.09-.01-.19-.03-.28-.04-.21-.03-.43-.06-.64-.1l-.3-.06-.3-.06-.09-.02c-.08-.01-.16-.03-.23-.05h0s0,0,0,0h-.03s0,0,0,0c0,0,0,0,0,0,0,0,0,0,0,0h0c-.06-.01-.12-.03-.18-.04-.27-.07-.54-.13-.81-.2-.5-.15-1-.3-1.51-.46-.9-.28-1.82-.55-2.71-.81l-.13-.04c-.41-.12-.84-.25-1.25-.38l-.18-.06c-.15-.05-.3-.1-.45-.15l-.41-.16-.31-.12c-.09-.04-.18-.08-.28-.12l-.17-.08-.12-.05c-.09-.04-.17-.08-.26-.12l-.17-.09c-.21-.11-.43-.22-.65-.33l-.18-.1c-.25-.14-.52-.29-.77-.44-.43-.26-.78-.47-1.1-.67-.63-.4-1.27-.82-1.89-1.22l-.5-.32-.27-.18c-.27-.17-.54-.35-.8-.53l-.16-.11c-.14-.09-.28-.19-.41-.28l-.59-.43-.37-.3-.27-.21c-.13-.1-.26-.22-.38-.33l-.15-.13c-.17-.15-.33-.3-.5-.44-.16-.15-.33-.3-.5-.44l-.19-.17-.19-.17s-.05-.05-.08-.07c-.05-.04-.09-.09-.14-.12-.21-.16-.41-.33-.62-.49-.13-.11-.28-.21-.42-.31l-.16-.12c-.15-.11-.32-.21-.47-.31.19.08.39.17.58.25.24.11.48.22.72.34.11.06.23.11.34.18.13.07.27.15.4.22.37.21.73.43,1.08.66.38.25.77.5,1.15.74.5.32,1.01.64,1.52.95.48.29.98.57,1.47.85-.01,0-.03-.02-.04-.02.06.03.12.07.18.1,0,0,0,0,0,0,.19.1.37.21.56.31-.01,0-.03-.02-.04-.02.22.12.44.24.65.37.24.14.49.29.73.43.23.14.44.28.66.43.09.06.17.12.26.18.1.07.2.14.3.21.16.12.33.24.5.36,0,0-.02-.01-.02-.02.01.01.03.02.04.03,0,0,.01,0,.02.01.4.29.79.59,1.2.87.47.32.95.64,1.43.96,0,0,0,0,0,0-.64-.54-1.27-1.1-1.88-1.68,0,0,0,0,0,0,0,0-.02-.02-.02-.02-.03-.03-.06-.06-.09-.08,0,0,0,0,0,0-.06-.06-.12-.12-.18-.17,0,0,.01.01.02.02-.02-.02-.04-.04-.06-.06,0,0,0,0,0,0,0,0,0,0-.01-.01,0,0,0,0,0,0,0,0,0,0,0,0-.04-.04-.07-.07-.11-.11,0,0,.01.01.02.02-.02-.01-.03-.03-.05-.04,0,0,0,0,.01.01-.39-.37-.79-.73-1.2-1.07-.12-.09-.23-.19-.35-.28-.13-.1-.27-.19-.4-.29-.19-.14-.39-.27-.59-.4-.5-.31-1-.62-1.52-.91-.52-.29-1.04-.58-1.55-.87-.46-.26-.91-.53-1.37-.79-.51-.3-1.02-.59-1.54-.87-.14-.08-.29-.15-.44-.22-.12-.06-.24-.12-.36-.17-.11-.05-.23-.11-.34-.16-.14-.06-.29-.13-.43-.18-.29-.11-.57-.21-.86-.31-.25-.09-.51-.17-.77-.26-.26-.09-.51-.18-.76-.27-.02,0-.04-.02-.06-.03.43-.02.86-.05,1.3-.06.21,0,.42-.02.63-.03.07.02.15.05.22.07Zm-2.86-9.1c.15-.06.3-.12.45-.19.27-.12.51-.29.76-.44.05-.03.1-.07.14-.1.07-.05.15-.1.22-.16.12-.09.23-.18.34-.27.46-.36.89-.76,1.32-1.15.87-.77,1.74-1.54,2.64-2.28,0,0,0,0,0,0-.2.12-.39.24-.59.36,0,0,0,0,0,0-.12.07-.24.15-.35.22,0,0,0,0,0,0-.32.19-.63.39-.93.6-.32.22-.64.44-.96.67-.24.18-.48.36-.72.54-.22.17-.45.35-.67.52-.25.19-.49.37-.74.55-.21.16-.44.3-.66.44-.16.09-.32.18-.48.27-.1.05-.21.09-.31.13,0,0,0,0-.01,0-.02,0-.04-.01-.06-.01-.1,0-.19.07-.21.16,0,.02,0,.05,0,.07-.31-.03-.63-.07-.94-.08-.24-.01-.49-.01-.73-.02h.01c.16-.09.35-.2.55-.31.2-.11.41-.24.62-.36h0s.02,0,.02,0l.06-.04.03-.02h.02s.01-.02.02-.02c.03-.02.05-.03.08-.05h0s.05-.03.05-.03h0s0,0,0,0c0,0,0,0,0,0,0,0,0,0,0,0h0s0,0,.01,0c0,0,0,0-.01,0h0s.01,0,.02,0l.03-.02.08-.05c.61-.37,1.19-.8,1.73-1.21.36-.27.76-.57,1.15-.85.39-.28.78-.54,1.17-.81.15-.1.3-.2.45-.3.59-.4,1.21-.81,1.76-1.27.18-.15.36-.3.55-.49.16-.15.31-.32.46-.49l.03-.03c.18-.2.35-.42.51-.62.1-.13.2-.25.3-.38.25-.3.51-.6.76-.9.34-.39.69-.79,1.01-1.21.36-.46.7-.96,1.02-1.44.19-.28.38-.57.58-.85l.15-.21c.07-.1.15-.21.22-.31.03-.04.07-.09.1-.13.04-.06.08-.11.12-.17,0,0,0,0,0,0,0,.01,0,.02,0,.03,0,.02,0,.03,0,.05-.02.12-.05.24-.08.36-.19.7-.43,1.44-.76,2.32-.12.3-.25.59-.38.87-.13.28-.28.56-.42.83h0s0,0,0,0l-.02.03h0s0,0,0,0h0s0,0,0,0c0,0,0,0,0-.01,0,0,0,.01-.01.02l-.02.04-.03.05h0s0,0,0,0l-.03.05-.05.09v.02s-.02.03-.02.03h0s0,.01,0,.01c0,0,0,0,0,0-.05.09-.1.18-.15.26-.02.03-.05.07-.07.1-.16.26-.32.52-.51.78-.14.18-.29.37-.44.55-.23.28-.46.57-.68.87l-.35.48c-.14.18-.28.35-.43.51-.28.26-.57.5-.85.73l-.02.02h-.02s-.1.09-.1.09l-.08.07c-.42.35-.84.71-1.27,1.08-.14.12-.27.24-.41.36-.14.12-.27.24-.41.36l-.45.39-.08.07c-.4.35-.81.7-1.2,1.08-.09.09-.18.18-.27.27-.05.05-.11.1-.16.15-.47-.09-.94-.16-1.41-.22Zm25.58,1.47l.1.02c.36.08.72.16,1.08.24.14.03.29.07.43.1.14.04.29.07.43.1l.13.03c.24.07.49.13.73.2.16.04.31.09.47.14.08.03.15.05.23.07.15.05.3.1.45.16.02,0,.04.02.06.02.06.02.12.04.18.06.15.05.29.11.43.17.06.03.12.05.19.08l.07.03.22.09s.03.01.05.02c.02,0,.03.01.05.02.07.03.14.06.2.09.09.05.19.1.28.14.1.05.2.1.29.15l.27.16s.06.03.09.05c.06.03.13.07.19.11.06.04.13.09.19.13.13.09.27.18.4.27h-.02s.07.04.11.07c.15.11.31.22.46.34,0,0,.02.01.03.02.07.06.14.12.21.17l.09.08s.07.05.1.08c.06.05.13.1.19.15l.18.16c.14.12.27.24.41.35.1.1.2.19.29.29l.1.1c.1.1.19.2.29.3l.09.1c.08.08.15.16.22.24.11.13.22.27.33.4l.16.22.16.22s.07.1.1.15l.03.04.02.03.02.03.05.08.05.08c.16.27.35.61.52.94.17.35.35.69.52,1.04.31.64.63,1.29.94,1.93.08.17.16.34.25.5.22.45.45.92.67,1.39.06.14.11.27.16.38.05.12.09.22.12.33h0,0s0,0,0,0c0,0,0,0,0,0-.01-.01-.03-.02-.04-.03-.06-.05-.11-.09-.16-.14-.31-.27-.63-.51-.89-.72-.37-.28-.74-.56-1.11-.83-.21-.15-.41-.31-.62-.46-.34-.26-.64-.48-.91-.69-.27-.21-.52-.4-.76-.59l-.54-.42c-.41-.32-.82-.65-1.23-.97l-.49-.38c-.4-.31-.81-.62-1.21-.94l-.11-.08c-.25-.19-.49-.39-.73-.59l-.3-.25c-.18-.15-.36-.3-.54-.44-.32-.26-.63-.51-.93-.74-.3-.24-.59-.46-.89-.68-.28-.21-.56-.41-.84-.61l-.07-.05c-.31-.22-.58-.4-.83-.56-.32-.2-.64-.41-.97-.6-.05-.03-.1-.06-.15-.09-.08-.05-.16-.1-.24-.14-.14-.08-.28-.17-.42-.25-.03-.02-.07-.04-.1-.06-.33-.21-.67-.42-1-.63-.13-.08-.26-.16-.4-.24l-.1-.06c-.1-.06-.21-.13-.32-.19,0,0-.01,0-.01-.01h0s0,0,0,0c0,0,0,0-.01,0,0,0,0,0,0,0,0,0,0,0,0,0,0,0,0,0,0,0,0,0,0,0,0,0-.02-.01-.04-.02-.07-.04l-.08-.04-.07-.04c.35.07.7.14,1.05.22.13.03.27.06.4.11.13.05.27.09.41.13.12.05.24.09.36.14.56.23,1.1.5,1.64.78.17.09.33.19.5.29.2.12.39.25.59.37.35.23.69.46,1.03.7-.01,0-.02-.02-.04-.03.25.19.51.37.77.56.29.21.58.41.88.6.54.35,1.1.67,1.66,1,0,0,0,0,0,0-.43-.37-.84-.77-1.26-1.16,0,0,.01.01.02.02-.18-.18-.37-.36-.55-.54-.18-.18-.36-.37-.55-.55,0,0,0,0,0,0-.12-.11-.23-.22-.35-.33-.3-.28-.61-.53-.94-.77-.31-.23-.64-.44-.97-.65-.33-.22-.68-.4-1.03-.59-.18-.1-.37-.19-.56-.28-.16-.08-.31-.16-.47-.23-.19-.08-.39-.17-.58-.24-.09-.03-.19-.07-.28-.1-.11-.03-.23-.07-.34-.1-.07-.02-.15-.04-.22-.06.61.12,1.25.25,1.9.4Zm16.84-14.56s0,0,0,0c0,0,0,0,0,0,0,0,0,0,0,0Zm-.93-.63c.01-.08.06-.15.11-.21.08-.09.19-.15.28-.22.11-.09.22-.18.34-.26.2-.16.4-.31.61-.47.02-.02.03-.03.05-.05.16-.16.3-.3.43-.43l.1-.11c.35-.37.72-.76,1.06-1.15.18-.21.37-.43.57-.66s.4-.47.61-.73c.2-.24.4-.49.59-.74.13-.16.26-.33.39-.49l.07-.09c.13-.16.26-.33.4-.49l.28-.32c.11-.12.22-.25.33-.37l.24-.25.48-.49c.16-.17.34-.33.5-.48.07-.07.15-.14.22-.21.5-.47,1.02-.91,1.41-1.24.28-.22.51-.39.74-.53.26-.15.54-.3.83-.43.49-.21,1.01-.4,1.54-.56l.23-.07c.19-.06.38-.11.56-.17l.22-.06.23-.06c.05-.01.1-.03.15-.04.1-.03.19-.06.29-.08.16-.03.32-.07.47-.1.16-.03.32-.07.47-.1l.24-.04c.26-.04.52-.08.78-.11l.31-.03.31-.03.61-.07c.39-.04.77-.09,1.16-.14h.08s0,0,0,0c0,0,0,0,0,0-.02.02-.03.03-.05.05-.1.11-.2.22-.31.34,0,0,0,0-.01.01-.18.21-.36.42-.53.63l-.13.16c-.29.36-.6.74-.91,1.09l-.13.15c-.35.4-.7.8-1.06,1.2-.26.29-.52.57-.78.85l-.33.36-.11.11c-.28.29-.58.58-.88.86l-.12.11c-.12.11-.24.22-.36.32l-.1.08c-.16.13-.32.26-.47.39l-.04.03-.34.25s-.07.05-.11.08c-.08.06-.16.12-.24.17-.25.16-.5.33-.76.49-.13.08-.27.16-.4.23-.13.08-.27.15-.4.23-.19.11-.39.22-.58.32-.08.04-.16.08-.24.13-.39.21-.79.4-1.18.59l-.36.18c-.11.05-.23.11-.35.17-.25.12-.52.26-.8.4-.14.07-.28.15-.42.22-.5.27-1,.53-1.5.79-.27.14-.53.28-.79.4-.68.35-1.3.64-1.9.92.33-.2.67-.4,1-.61.26-.16.52-.33.76-.52.26-.2.53-.41.79-.61.54-.42,1.08-.85,1.62-1.28.52-.42,1.05-.83,1.58-1.22.53-.39,1.07-.77,1.6-1.17.15-.12.3-.23.45-.35.13-.1.25-.21.36-.32.11-.1.22-.19.32-.29.13-.13.26-.27.39-.4.12-.13.23-.27.35-.41.1-.12.2-.25.3-.38.22-.28.43-.55.66-.82,0,0,0,0,0,0-.05.04-.1.08-.15.12,0,0,0,0,0,0-.12.09-.23.19-.35.28,0,0,0,0,0,0-.23.19-.46.38-.69.57-.15.12-.3.24-.46.35-.15.1-.29.21-.44.31-.16.11-.32.21-.48.32-.28.19-.57.39-.85.58-.27.19-.55.37-.83.56-.28.19-.55.38-.83.57-.48.33-.94.68-1.39,1.04-.04.03-.08.06-.12.09-.54.43-1.08.85-1.62,1.29-.25.19-.48.4-.73.6-.06.05-.12.09-.18.14-.52.4-1.08.74-1.64,1.1-.35.23-.71.45-1.06.68-.04.03-.09.06-.13.08.07-.05.13-.11.2-.16-.02-.03-.04-.06-.05-.09-.02-.05-.02-.11-.02-.17,0-.02,0-.04,0-.05Zm-15.83,9.67c.2-.16.4-.33.6-.49.24-.2.49-.4.72-.6.21-.17.41-.35.62-.52l.14-.11c.26-.21.54-.42.82-.61.35-.24.7-.47,1.06-.7.26-.16.54-.32.83-.47.27-.15.55-.27.83-.4l.18-.08c.19-.08.39-.16.59-.23.29-.1.58-.2.83-.28.62-.18,1.24-.33,1.72-.44.57-.13,1.17-.23,1.7-.32.61-.08,1.23-.16,1.84-.24h.07c.54-.08,1.11-.15,1.66-.2.64-.06,1.3-.1,1.93-.14.33-.02.66-.04.99-.07.22-.02.43-.03.65-.05h.06c.27-.03.54-.05.81-.07.26-.02.51-.03.75-.04.24-.01.48-.02.71-.02.48,0,.88.02,1.24.05.25.02.51.03.76.05.25.02.51.04.76.05.48.03.97.05,1.43.06h.13c.32.01.64.02.95.03h0s0,0,0,0c-.02,0-.04.02-.06.03l-.06.03-.03.02-.15.08c-.48.24-.92.47-1.35.68-.43.21-.83.4-1.23.58-.42.2-.85.39-1.27.59-.5.24-1,.47-1.5.7-.07.03-.13.06-.2.08-.07.03-.13.06-.2.08l-.17.07c-.13.05-.26.1-.4.15l-.17.06c-.29.11-.59.2-.89.29l-.2.06h0s0,0,0,0h.01c-.06.01-.12.03-.18.04-.25.07-.5.14-.75.2-.97.25-1.97.49-2.97.72l-.1.02c-.9.2-1.83.41-2.76.57-.5.07-1.01.12-1.52.15-.27.02-.54.03-.81.04-.21,0-.42.02-.63.03-.01,0-.02,0-.03,0-.36.02-.71.05-1.07.07l-.4.03c-.28.02-.54.04-.79.06-.25.02-.49.04-.72.07-.23.03-.46.06-.68.09.22-.07.44-.15.67-.21-.01,0-.03,0-.04.01,1.15-.33,2.29-.69,3.43-1.03,0,0-.01,0-.02,0,.63-.18,1.27-.38,1.9-.57,1.61-.5,3.2-1.08,4.82-1.58,0,0,0,0,0,0-1.01.13-2.03.23-3.03.38-.18.03-.35.05-.53.08-.83.13-1.67.27-2.49.46-.88.2-1.74.46-2.59.74-1.6.53-3.22,1.02-4.79,1.64-.39.15-.77.32-1.16.48-.3.12-.59.24-.89.36-.09.02-.18.03-.27.05,0,0,0,0,0,0,0,0,0,0,0,0,.33-.22.61-.4.88-.61Zm-9.57,1.43c.04-.12.08-.24.12-.37.07-.22.15-.44.21-.66.17-.59.31-1.19.45-1.78l.1-.44c.19-.7.35-1.26.51-1.77l.08-.26c.17-.54.35-1.11.51-1.67.12-.44.24-.88.34-1.33.11-.44.21-.89.31-1.33.1-.44.21-.9.32-1.36.03-.11.05-.21.07-.32.08-.3.15-.57.22-.82.07-.25.14-.49.21-.72.08-.28.17-.56.26-.83.06-.18.12-.36.19-.53l.06-.16.07-.17c.06-.14.11-.29.18-.43.04-.08.07-.16.11-.24.07-.15.14-.31.21-.46.04-.07.08-.15.11-.23.08-.15.15-.31.23-.46.13-.23.25-.46.38-.7.12-.21.24-.43.36-.65v-.02c.09-.15.18-.3.26-.45l.1-.18v.02s.01-.04.01-.04h0s0,0,0,0h0s0,.01,0,.01c.02-.04.04-.07.06-.11.08-.15.17-.31.25-.46,0,0,0,0,0-.01h0s0,0,0,0h0s0,.01,0,.01h0s0,0,0,0h0s.03-.06.05-.08l.07-.13s0,0,0,0c0,0,0,0,0,0,0,.03.02.06.02.09.05.17.09.34.13.5.09.39.19.77.29,1.16.08.33.17.66.25.99.06.22.11.44.16.67.11.49.2.99.28,1.49h0s0-.02,0-.02c0,0,0,.01,0,.02,0,0,0-.01,0-.02h0s0,0,0,0v.06c.04.22.07.45.08.67.02.27.03.54.04.81,0,.23,0,.47,0,.71,0,.24-.01.49-.03.74-.02.28-.04.56-.06.84-.02.21-.04.42-.07.63v.02c-.04.24-.08.51-.13.77-.02.09-.04.18-.06.27-.03.13-.06.26-.09.41l-.02.08c-.08.25-.15.52-.25.77-.03.08-.07.17-.12.26-.04.09-.09.19-.15.3l-.08.14-.15.27c-.05.09-.1.17-.16.26l-.04.07c-.17.27-.35.55-.53.82-.17.26-.35.52-.52.76-.17.24-.33.47-.48.68-.03.04-.06.09-.1.13-.19.26-.4.52-.6.78-.26.33-.51.67-.78,1-.14.17-.27.32-.4.48-.36.43-.71.83-1.04,1.19-.29.29-.57.58-.86.87-.09.09-.18.17-.26.25.16-.28.32-.56.48-.85,0,.02-.02.03-.03.05.14-.24.27-.49.41-.73.12-.2.23-.41.34-.61,0,0,.01-.02.02-.03.23-.41.47-.82.69-1.24.06-.12.13-.23.18-.35.05-.11.09-.22.14-.32.09-.22.17-.45.25-.67.14-.4.25-.82.31-1.24.02-.12.04-.24.06-.37.01-.12.02-.24.04-.36.02-.23.04-.47.05-.7,0,0,0,0,0,0-.05.22-.1.45-.16.67,0,0,0,0,0,0-.06.22-.12.43-.2.65-.06.18-.14.36-.21.54-.08.17-.15.34-.23.5-.1.18-.2.37-.3.55,0-.01.01-.02.02-.03-.12.19-.22.39-.35.57-.14.2-.28.41-.43.61-.26.37-.52.75-.77,1.13-.39.59-.75,1.19-1.1,1.8.04-.12.07-.24.11-.35Zm-39.79,8.09c.44-.15.88-.33,1.31-.49l.29-.12.08-.03.08-.03c.46-.18.91-.36,1.37-.53.26-.1.53-.2.8-.3.27-.1.55-.2.82-.3.24-.08.48-.17.74-.25s.54-.17.84-.27c.02,0,.03,0,.04-.01.02,0,.04-.01.05-.02.05-.01.1-.03.15-.04l.15-.04c.5-.14,1.01-.27,1.51-.39.5-.12,1-.24,1.49-.35l.18-.04.18-.04.11-.03c.49-.11.97-.23,1.46-.33.52-.11,1.07-.22,1.66-.32l.15-.02.13-.02c.29-.04.57-.06.86-.1.73-.08,1.44-.14,2.13-.18h0c.12,0,.26-.02.38-.02.58-.03,1.19-.05,1.85-.07h0c.46-.01.94-.03,1.47-.04.13,0,.27,0,.41,0,.41,0,.82,0,1.24.01,0,0,0,0,.01,0,.26,0,.53.02.79.04.26.02.53.05.8.07.58.08,1.1.16,1.59.25.57.11,1.13.21,1.7.31.26.04.52.09.78.13.3.05.59.1.89.15.56.1,1.11.22,1.57.33.27.07.51.14.73.2.07.02.14.04.21.07h0c.14.04.28.08.4.13.43.14.84.3,1.3.47.02,0,.03.01.05.02.54.2,1.07.4,1.6.57.53.18,1.06.34,1.58.49,1.08.31,2.16.61,3.35.93.58.16,1.11.3,1.63.42.51.12,1.01.22,1.51.3,0,0,0,0,0,0,0,0,0,0,0,0-.04.01-.08.02-.12.03-.21.06-.42.12-.62.18h0c-.1.03-.19.06-.29.08-.03,0-.06.02-.09.03-.38.11-.74.2-1.09.29-.34.09-.67.17-.98.24l-.15.03c-.29.07-.6.14-.9.2-.33.06-.65.12-.98.18h-.05s0,0,0,0h-.05s0,0,0,0h0s.01,0,.01,0c-.08.01-.15.02-.23.03-.08.01-.17.02-.26.04-.07,0-.14.02-.21.03-.22.03-.44.06-.66.08-.33.03-.69.07-1.07.1-.13.01-.25.02-.38.03l-.58.04c-.94.07-1.91.15-2.86.24-.31.03-.62.07-.93.11-.24.03-.48.06-.73.09-.53.06-1.1.12-1.67.15-.82.05-1.66.08-2.47.11-.33.01-.66.03-.98.04-.01,0-.03,0-.04,0h0c-.3.01-.6.03-.9.04-.13,0-.27,0-.41.01h0c-.65.03-1.32.06-1.98.07,0,0,0,0,0,0,0,0,0,0,0,0h0s-.07,0-.11,0h0c-1.09.01-2.17-.03-3.37-.07-.29-.01-.58-.03-.86-.04-.1,0-.2-.01-.3-.02-.18-.01-.37-.02-.54-.04-.11,0-.21-.02-.32-.03-.16-.01-.33-.03-.49-.04-.14-.01-.28-.03-.42-.04-.1,0-.21-.02-.3-.03,0,0,0,0,0,0,0,0,0,0,0,0-.02,0-.04,0-.06,0,0,0,0,0,0,0-.12-.01-.25-.03-.37-.05-.04,0-.08-.01-.12-.02-.51-.06-1.03-.13-1.55-.22-.94-.16-1.89-.34-2.81-.52l-.59-.11c-.46-.09-.94-.17-1.4-.25l-.28-.05-.18-.03c-.2-.03-.4-.07-.6-.1-.32-.05-.65-.08-.92-.11-.55-.06-1.11-.08-1.64-.1-.15,0-.3,0-.45-.01-.15,0-.29,0-.44-.01-.02,0-.05,0-.07,0-.17,0-.35,0-.52-.02.13,0,.26-.01.39-.02,1.91-.11,3.81-.33,5.7-.62,0,0,0,0-.01,0,0,0,0,0,0,0,.05,0,.09-.01.14-.02-.02,0-.05,0-.07.01.11-.02.22-.03.33-.05.05,0,.09-.01.14-.02,0,0,0,0-.01,0,.01,0,.03,0,.04,0,.02,0,.04,0,.05,0-.02,0-.05,0-.07.01.26-.04.51-.08.77-.12-.02,0-.05,0-.07.01.84-.12,1.68-.23,2.52-.32.46-.05.93-.09,1.39-.13.47-.04.94-.08,1.42-.11.5-.03,1.01-.07,1.51-.1.45-.03.89-.04,1.34-.05.96,0,1.91.02,2.86.06.96.04,1.92.08,2.89.08.96,0,1.93-.02,2.89.03.49.03.98.07,1.46.12.47.05.94.1,1.41.16.49.05.97.1,1.46.12.51.02,1.02.03,1.53.03,0,0,0,0,0,0-.58-.08-1.15-.19-1.73-.32,0,0,.01,0,.02,0-.39-.1-.77-.2-1.15-.31-.33-.09-.67-.19-1-.28-.25-.06-.49-.14-.74-.19-.23-.05-.46-.11-.69-.15-.48-.09-.95-.17-1.43-.22-.97-.1-1.94-.15-2.91-.19-.48-.02-.95-.03-1.43-.05-.48-.02-.95-.03-1.43-.04-.98,0-1.96,0-2.94.07-1,.07-1.99.14-2.99.22-.46.04-.92.08-1.38.13-.45.05-.91.09-1.36.16-1,.14-2,.28-3,.46-.91.16-1.82.31-2.73.46,0,0,0,0,.01,0-.32.04-.64.09-.97.13-.37.05-.75.09-1.12.13-.65.07-1.31.13-1.96.2-.97.1-1.94.21-2.91.37-.21.04-.43.08-.64.12-.23-.02-.44-.03-.65-.05l-.24-.02h-.06s0,0,0,0c0,0,0,0,0,0,.07-.01.14-.03.2-.04.09-.02.17-.04.26-.06.15-.03.31-.06.46-.1.8-.16,1.62-.33,2.4-.6Zm-24.23-6.28h0s0,0,0,0c.12-.02.23-.05.35-.07,0,.03-.02.05-.01.08,0,.02.02.05.03.07,0,0,0,0,0,0l-.38-.08s0,0,0,0Zm5.1-1.11c.49-.11,1.07-.23,1.68-.37s1.26-.29,1.91-.45c.46-.11.92-.24,1.37-.36l.34-.09c.57-.15,1.14-.31,1.71-.46,1-.27,2.09-.51,3.51-.81.56-.12,1.15-.23,1.74-.34.59-.11,1.16-.2,1.75-.3.13-.01.26-.03.4-.05l.28-.03c.06,0,.12-.02.19-.02.12-.02.25-.03.37-.04l.26-.02c.16-.01.32-.03.48-.04.07,0,.13-.01.2-.02.12-.01.23-.02.35-.03.16,0,.31-.02.47-.02.28-.02.57-.03.85-.04h.23c.36-.01.72-.02,1.08-.04h.37c.42,0,.86,0,1.29.02h.39c.24.02.47.03.71.04.19,0,.38.02.58.04.09,0,.18.01.27.02,1.2.08,2.43.2,3.51.3.32.04.64.07.96.11.19.02.38.04.58.07.31.04.61.08.92.13.15.02.3.04.45.07.28.04.55.08.83.12l.39.06c.5.08,1.02.13,1.52.19l.36.04c.2.02.4.03.59.04h.07s.49.02.49.02l.62.03s.06,0,.08,0c0,0,0,0,0,0h.02c-.16.04-.31.08-.47.12-.1.03-.19.05-.29.08-.42.12-.83.23-1.22.35,0,0-.01,0-.02,0-.34.1-.64.2-.91.28-.27.09-.52.17-.76.26l-.3.11c-.45.16-.92.33-1.39.48-.26.08-.52.16-.79.25-.81.25-1.66.51-2.59.78-.55.15-.98.26-1.39.36-.5.11-.99.23-1.49.34-1.02.23-1.95.4-2.83.54-.91.13-1.61.21-2.27.27-.54.05-1.07.1-1.61.14l-.69.06c-1.12.1-2.32.19-3.53.24-1.27.05-2.51.08-3.68.1h.01s-.02,0-.02,0c0,0,.02,0,.02,0h0c-.12,0-.24,0-.35,0-.04,0-.09,0-.13,0-.49,0-.99,0-1.5-.01-.71-.02-1.42-.08-2.03-.14l-.49-.06-.25-.03h.03s-.06,0-.09,0c-.18-.02-.36-.04-.54-.07-.27-.04-.53-.07-.8-.1l-.38-.04h-.07s-.06-.02-.06-.02l-.16-.02c-.63-.08-1.26-.15-1.89-.22-.34-.04-.68-.08-1.01-.11-.76-.09-1.49-.21-2.2-.35.2,0,.4-.01.6-.02.39-.01.78-.02,1.17-.02-.01,0-.03,0-.04,0,.28,0,.57,0,.85-.01-.01,0-.03,0-.04,0,.24,0,.49,0,.73,0,.91,0,1.83-.01,2.74-.06.91-.05,1.82-.09,2.73-.16.92-.07,1.84-.16,2.76-.27.91-.11,1.81-.23,2.72-.33.93-.1,1.87-.19,2.8-.28.92-.08,1.84-.15,2.76-.23,1.9-.17,3.8-.39,5.7-.58,1.81-.19,3.63-.31,5.44-.44,0,0,0,0,0,0-.38-.01-.75-.02-1.13-.04-.95-.04-1.9-.1-2.86-.14-.2,0-.4-.01-.6-.02-.24,0-.47-.02-.71-.02-.45,0-.91,0-1.36,0-1.89.03-3.78.1-5.66.24-1.82.14-3.63.3-5.43.57-.36.05-.72.11-1.09.16.01,0,.02,0,.04,0,0,0,0,0-.01,0,.01,0,.02,0,.04,0-.32.05-.65.1-.97.15-.29.04-.58.09-.87.13-.55.08-1.1.16-1.65.23-.5.07-1,.13-1.51.18-.91.1-1.82.2-2.74.27-.9.07-1.8.07-2.7.09.01,0,.03,0,.04,0-.4,0-.79.01-1.19.02,1.13-.25,2.27-.5,3.4-.74Zm-8.7-11.73c.27-.02.55-.05.83-.06.29-.02.58-.04.88-.05.18,0,.36,0,.54,0h.43c.21,0,.43.01.64.02h.13s.15.02.15.02c.2.01.42.03.62.05l.97.1c.18.02.37.05.55.08l.12.02c.29.04.57.08.87.13.3.05.61.1.94.15.48.08.97.18,1.45.27l.26.05c.53.1,1.06.22,1.59.35.53.12,1.07.26,1.61.39h0s.01,0,.01,0c.64.17,1.3.34,1.94.52.74.21,1.47.43,2.15.64.33.1.66.2.99.31l.56.18c.43.13.86.25,1.28.37l.18.05.28.08c.48.14.96.27,1.44.41l.22.06c.19.05.38.11.56.17l.25.08c.13.04.26.08.39.13h0s0,0,0,0h0s0,0,0,0c-.12.02-.23.03-.35.05l-.37.05c-.67.09-1.34.19-2.02.29-.34.05-.67.1-1.01.15h-.03s0,0,0,0c0,0-.02,0-.03,0-.01,0-.02,0-.02,0,0,0,0,0,0,0l-.54.08-.54.08c-.24.03-.48.06-.72.08l-.18.02-.18.02c-.23.03-.47.05-.71.06h-.34c-.25.03-.5.04-.75.05h-.4s0,0,0,0h0c-.3,0-.59,0-.89,0h-.57c-.28-.02-.56-.02-.84-.03,0,0,0,0-.01,0h-.41c-.83-.02-1.7-.03-2.54-.04h-.43c-.4,0-.81,0-1.21,0-.1,0-.2,0-.29,0-.21,0-.42,0-.62-.01l-.56-.03-.42-.02h-.02c-.42-.02-.85-.06-1.27-.09l-.44-.04c-.47-.04-.95-.09-1.42-.15h-.08c-.49-.07-.98-.12-1.47-.18,0,0,.01,0,.01,0,0,0,0,0,0,0h0s-.3-.04-.3-.04c-.5-.06-1.01-.12-1.51-.19-.12-.02-.23-.03-.35-.05-.24-.03-.47-.06-.71-.1-.24-.04-.47-.08-.71-.12l-.33-.06c-1.03-.18-2.06-.43-3.06-.67l-.34-.08c-.44-.11-.87-.21-1.31-.32l-.29-.07c-.22-.05-.45-.11-.67-.16-.3-.07-.59-.14-.89-.22h0s-.02,0-.02,0h-.02s-.37-.1-.37-.1c-.43-.11-.87-.22-1.3-.34-.33-.09-.65-.18-.95-.27-.04-.01-.08-.02-.12-.03.11.02.22.04.33.06.31.05.61.09.92.14.39.06.77.12,1.16.17.46.06.93.12,1.39.18.8.11,1.61.19,2.42.27.28.03.55.05.83.07.5.04,1,.08,1.5.12.77.06,1.54.12,2.32.17.34.02.67.06,1.01.09.4.04.81.07,1.21.11.65.08,1.29.15,1.94.22.09.01.18.03.27.04.27.04.55.09.82.13.15.02.3.04.45.07.4.08.8.16,1.2.24.82.17,1.64.35,2.46.53,0,0,0,0,0,0-.8-.24-1.6-.49-2.4-.73-.39-.12-.79-.22-1.18-.34-.13-.04-.27-.07-.41-.1-.26-.06-.52-.13-.78-.19-.12-.03-.24-.06-.37-.09-.17-.03-.35-.07-.52-.1-.46-.09-.92-.17-1.39-.26-.09-.02-.19-.03-.28-.04-.26-.04-.52-.08-.78-.11-.39-.06-.79-.12-1.18-.17-.7-.09-1.4-.16-2.1-.23-.77-.08-1.55-.15-2.32-.22-.31-.03-.62-.06-.93-.09-.41-.04-.82-.08-1.23-.13.02,0,.03,0,.05,0-.7-.09-1.39-.16-2.09-.26-.49-.07-.99-.13-1.48-.2-.3-.04-.59-.09-.89-.14-.13-.02-.27-.04-.4-.07.27,0,.55-.01.82-.02.9-.02,1.8-.09,2.61-.17.27-.03.53-.05.78-.08,1.11-.12,2.21-.24,3.32-.36.06,0,.13-.02.19-.02.59-.07,1.18-.14,1.77-.21.49-.06.97-.12,1.46-.18.6-.07,1.1-.13,1.61-.17Zm-3.33,17.89l-.37-.62s0,0,0,0h0s0,0,0,0h0s0,0,0,0l.03.02.03.03c.19.18.36.35.54.52-.04.03-.06.06-.08.1-.02.03-.02.07-.03.11-.04-.05-.07-.11-.11-.16Zm27.7,23.5h-.03c-.13-.03-.27-.06-.4-.09-.13-.03-.26-.05-.39-.07-.13-.02-.26-.05-.39-.07-.34-.06-.69-.13-1.04-.2-.35-.07-.7-.15-1.05-.24-.48-.12-.94-.27-1.38-.45-.21-.09-.42-.18-.62-.27-.2-.09-.39-.19-.58-.29-.22-.12-.45-.26-.67-.41s-.45-.3-.68-.47c-.44-.32-.87-.67-1.29-1l-.31-.25c-.25-.2-.5-.39-.75-.58-.13-.1-.27-.2-.4-.3-.26-.2-.53-.41-.8-.61l-.3-.22c-.24-.18-.47-.37-.71-.55l-.22-.17-.27-.21-.34-.27c-.07-.06-.15-.12-.22-.19l-.06-.05-.32-.29c-.26-.23-.52-.46-.78-.68h0s-.01-.02-.01-.02c0,0-.02-.02-.02-.02h0s-.05-.05-.08-.08l-.03-.03-.02-.02h0s-.01-.01-.01-.01l-.02-.02-.02-.02-.46-.44h.01s0,0-.01,0c0,0,0,0,.01.01h0s-.02-.01-.03-.02c-.04-.04-.09-.08-.13-.12l-.03-.02-.02-.02-.02-.02-.03-.02-.02-.02h0s-.02-.02-.02-.02l-.09-.09-.02-.02-.03-.03h-.02s-.04-.05-.04-.05l-.04-.04-.07-.07-.02-.02h0s0-.02,0-.02c0,0,0,0,0,0,0,0,0,0,0,0,0,0-.01,0-.02-.01h0s-.01-.01-.01-.01h0s0,0,0,0h0s0,0,0,0c0,0,0,0,0,0,0,0-.01-.01-.02-.02l-.04-.03-.12-.11-.03-.03-.02-.02h0s-.15-.15-.15-.15l-.08-.08-.08-.08h0s0,0,0,0h.01s0,0-.01,0c0,0,0,0,.01.01h0s0,0,0,0c-.08-.08-.16-.16-.25-.23l-.28-.27h.01s-.02-.01-.02-.01l-.18-.17c-.17-.17-.34-.32-.51-.48-.08-.08-.17-.16-.25-.24l-.54-.5-.14-.13h0s-.03-.03-.03-.03l-.02-.02h0s0,0,0,0h0s0,0,0,0c0,0,0,0,0,0h0c-.07-.06-.13-.13-.2-.19l-.2-.19-.4-.39-.23-.22c-.09-.09-.18-.18-.28-.27-.09-.09-.18-.18-.27-.27l-.75-.77-.46-.47c-.17-.17-.33-.35-.51-.54-.06-.06-.11-.12-.17-.18-.11-.12-.22-.24-.33-.36-.22-.23-.43-.47-.64-.71-.43-.53-.79-.97-1.16-1.42-.11-.15-.22-.3-.33-.45l-.16-.21-.14-.19-.46-.62c-.17-.24-.34-.48-.51-.72-.09-.12-.17-.24-.26-.37-.21-.3-.43-.6-.64-.9l-.21-.29s-.05-.08-.08-.11c.15.17.3.35.46.51.24.24.48.49.71.73.15.16.31.32.47.47,0,0,0,0,0,0,0,0,.02.02.03.03,0,0,0,0,0,0,0,0,.01.01.02.02,0,0,0,0,.01.01,0,0,0,0,0,0,.03.03.06.06.1.09,0,0,0,0,0,0,.04.04.09.08.13.12,0,0,0,0,0,0,.03.03.06.06.09.08-.01,0-.02-.02-.03-.03.18.17.36.34.54.52-.01,0-.02-.02-.03-.03.06.06.13.12.19.18-.01,0-.02-.02-.03-.03.02.01.03.03.05.04h0s0,0-.01-.01c0,0,.01.01.02.02.01.01.02.02.03.03,0,0-.01-.01-.02-.02,0,0,0,0,.01,0,0,0-.01-.01-.02-.02,0,0,0,0,0,0h0s0,0,0,0c0,0,0,0,0,0,0,0,0,0,0,0,0,0,0,0,.01.01,0,0,0,0,0,0,0,0,0,0,0,0,.05.05.1.1.16.15.56.51,1.12,1.02,1.68,1.53.21.19.42.38.62.57.27.25.54.49.8.74,0,0,0,0,0,0,0,0,.02.01.02.02,0,0,0,0,0,0,0,0,0,0,0,0,0,0,.01.01.02.02,0,0-.01-.01-.02-.02,0,0,0,0,0,0,.22.21.45.43.67.64-.01,0-.02-.02-.03-.03.06.05.12.11.17.17,0,0-.02-.02-.03-.03.04.04.08.07.12.11,0,0-.02-.02-.03-.03l.02.02s0,0,0,0c0,0,.01.01.02.02.11.12.23.23.35.34.16.16.32.31.48.47.24.24.49.48.74.72.21.21.43.41.65.62.17.16.35.32.52.48.06.06.12.11.19.17.33.27.65.53.98.79.09.07.18.13.27.2.2.14.4.28.59.43.5.36,1.01.7,1.51,1.04.3.2.59.4.89.61.29.21.59.42.88.63,0,0,0,0,0,0,0,0,0,0,.01,0,0,0,0,0,0,0,.24.18.49.36.74.54,0,0,0,0,0,0,0,0,0,0,0,0,0,0,0,0,0,0,.02.01.04.03.06.04,0,0,0,0,0,0,.03.02.07.05.1.07,0,0,0,0,0,0,0,0,0,0,0,0,0,0,0,0,0,0,0,0,0,0,0,0,0,0,0,0,0,0,.28.21.57.42.85.63,0,0,0,0,0,0-.53-.5-1.07-.99-1.61-1.49,0,0,0,0,.01.01-.09-.09-.19-.17-.29-.26-.16-.14-.32-.28-.48-.42-.25-.22-.52-.43-.78-.65-.24-.2-.47-.39-.71-.58-.24-.19-.48-.38-.72-.57-.19-.15-.38-.3-.57-.45-.11-.09-.22-.18-.33-.26-.17-.15-.35-.3-.53-.45-.12-.1-.25-.21-.37-.31-.06-.05-.11-.09-.17-.14-.33-.31-.67-.61-1.01-.92-.51-.5-1.02-.99-1.53-1.48-.45-.43-.9-.86-1.36-1.28-1.04-.96-2.08-1.91-3.12-2.86-.22-.22-.44-.43-.67-.65.19.17.38.35.57.52l.1.09.39.34c.2.18.4.36.6.54.15.14.31.27.47.4l.12.1c.12.1.24.2.36.29.38.29.75.56,1.11.82h-.01s0,0,.01,0c0,0,0,0-.01,0h0s0,0,0,0c.04.03.08.06.12.09.19.14.39.28.58.42h.02s0,.01,0,.01c0,0,0,0,0,0h0s0,0,0,0c0,0,0,0,0,0,0,0,0,0,0,0,.06.05.13.09.19.14l.19.14.33.24.15.12c.3.22.59.45.88.68.06.05.13.1.19.15.31.25.63.5.94.75.33.27.66.53.99.79.11.08.21.17.32.25l.16.12c.06.04.11.09.17.13.11.08.21.17.32.25h0s.02.02.02.02h0s0,0,0,0h-.01s0,0,.01,0c0,0,0,0-.01,0h0s.06.04.08.06c.13.09.26.19.39.29.17.12.33.25.5.37.23.17.47.34.7.5l.29.2c.13.09.27.19.4.28.16.11.33.22.49.34.16.11.32.23.48.34.15.11.3.22.45.32.12.09.24.18.36.28l.13.1.21.16.13.1.04.03s.06.04.08.07l.44.38c.18.15.35.31.53.46.15.15.29.29.44.44l.14.14.12.11c.11.1.21.21.31.31l.2.21c.3.32.6.64.91.96l.3.31.3.31c.08.08.17.16.26.24l.09.08.64.59c.08.08.17.15.25.22l.07.06.24.21c.25.21.5.42.75.63l.26.22c.24.2.5.41.74.62.1.09.2.17.29.26.23.2.47.41.7.62l.26.24c.24.23.48.45.73.67l.29.27.29.27c.12.11.24.21.36.31l.08.07h0s0,0,0,0c-.01,0-.03,0-.04,0Z"></path><path d="m32.96,19.28s0,0-.01,0c-.02,0-.04,0-.06,0,.03,0,.05,0,.08,0Z"></path><path d="m47.72,34.93s.02,0,.03,0c0,0,0,0,.01,0-.01,0-.03,0-.04-.01Z"></path><path d="m93.2,12.72s.01,0,.02-.01c0,0,0,0,0,0,0,0-.02.01-.03.02Z"></path><polygon points="91.55 18.43 91.55 18.43 91.55 18.43 91.55 18.43"></polygon><path d="m106.68,14.43s0,0,0,.01c0,.02,0,.04,0,.06,0-.02,0-.05,0-.07Z"></path><path d="m106.71,14.16s0,.04,0,.06c0,0,0,0,0,0,0-.02,0-.05,0-.07Z"></path><path d="m103.71,20.77s0,0-.01.01c-.01.01-.02.03-.03.04.01-.02.03-.04.04-.05Z"></path><path d="m126.77,15.73s0,0,.01,0c0,0,0,0,0,0,0,0-.02,0-.02,0Z"></path><path d="m48.4,24.32s0,0,.01,0h0s-.01,0-.02,0Z"></path><path d="m29.34,15.61s0,0,0,0c.01,0,.03,0,.04,0-.02,0-.03,0-.05,0Z"></path><path d="m86.74,37.44s.02.01.03.02c0,0,0,0,0,0-.01,0-.02-.01-.03-.02Z"></path></g></svg>